<svg xmlns="http://www.w3.org/2000/svg" xmlns:xlink="http://www.w3.org/1999/xlink" width="58" height="64.357" viewBox="0 0 58 64.357">
  <defs>
    <linearGradient id="linear-gradient" x1="0.544" y1="0.078" x2="0.5" y2="1.048" gradientUnits="objectBoundingBox">
      <stop offset="0" stop-color="#8edcff"/>
      <stop offset="1" stop-color="#fff"/>
    </linearGradient>
    <linearGradient id="linear-gradient-2" x1="0.5" y1="-0.788" x2="0.5" y2="1" gradientUnits="objectBoundingBox">
      <stop offset="0" stop-color="#1b2c70"/>
      <stop offset="1" stop-color="#fff" stop-opacity="0"/>
    </linearGradient>
  </defs>
  <g id="truck" transform="translate(-147 -671)">
    <rect id="Rectangle_37" data-name="Rectangle 37" width="58" height="59" rx="7" transform="translate(147 671)" fill="url(#linear-gradient)"/>
    <path id="Union_3" data-name="Union 3" d="M22.035,23.731a.566.566,0,0,1-.548-.429l-.6-2.4H1.695a.566.566,0,0,1-.548-.43l-1.13-4.52a.571.571,0,0,1,.231-.605L12.679,6.876a.566.566,0,0,1,.316-.1h5.086a.559.559,0,0,1,.547.429L22.476,22.6h5.21a.565.565,0,1,1,0,1.13ZM15.255,9.04a.679.679,0,0,0-.146.018.571.571,0,0,0-.4.695l2.261,8.475a.567.567,0,0,0,1.1-.294L15.8,9.459a.567.567,0,0,0-.546-.419ZM9.266,12.012a.689.689,0,0,0-.147.017.573.573,0,0,0-.4.7l1.47,5.5a.567.567,0,1,0,1.1-.294l-1.468-5.5a.565.565,0,0,0-.546-.419ZM6.378,13.894a.69.69,0,0,0-.147.018.573.573,0,0,0-.4.695L6.8,18.228a.568.568,0,0,0,1.1-.294l-.966-3.622a.567.567,0,0,0-.546-.419ZM3.344,15.8a.573.573,0,0,0-.4.695l.464,1.735a.568.568,0,0,0,1.1-.294L4.039,16.2a.574.574,0,0,0-.548-.419A.69.69,0,0,0,3.344,15.8Zm8.662-5.651a.573.573,0,0,0-.4.695l1.972,7.386a.568.568,0,0,0,1.1-.294L12.7,10.549a.573.573,0,0,0-.548-.418A.689.689,0,0,0,12.005,10.148ZM23.182,21.041,19.334,5.65H11.266a5.085,5.085,0,1,1,0-1.13H21.5a5.088,5.088,0,0,1,10.012-.565,4.51,4.51,0,0,1,.091.565h.605a1.509,1.509,0,0,1,.559.1A1.681,1.681,0,0,1,33.9,6.209v7.351a2.183,2.183,0,0,1-2.26,2.26h-1.8l-1.04,5.2a.566.566,0,0,1-.553.453H23.728A.562.562,0,0,1,23.182,21.041Zm.7-3.959a.373.373,0,0,0-.083.3l.449,2.693a.322.322,0,0,0,.317.268h3.221l.452-3.39H24.165A.372.372,0,0,0,23.884,17.082Zm-1.967-5.77.277,1.119h7.188a.579.579,0,0,0,.367-.136L32.771,9.7V8.216l-3.6,3.085H21.91ZM23.73,5.085a2.825,2.825,0,1,0,2.825-2.825A2.824,2.824,0,0,0,23.73,5.085Zm-20.341,0A2.825,2.825,0,1,0,6.214,2.261,2.824,2.824,0,0,0,3.39,5.085Zm21.471,0A1.7,1.7,0,1,1,26.555,6.78,1.7,1.7,0,0,1,24.86,5.085Zm-20.341,0A1.695,1.695,0,1,1,6.214,6.78,1.694,1.694,0,0,1,4.519,5.085Z" transform="translate(158.795 711.625)" fill="url(#linear-gradient-2)"/>
    <g id="dump-truck_3_" data-name="dump-truck (3)" transform="translate(158.794 688.036)">
      <path id="Path_30" data-name="Path 30" d="M83.378,295.691a1.7,1.7,0,1,1-1.7-1.695A1.695,1.695,0,0,1,83.378,295.691Zm0,0" transform="translate(-75.468 -277.045)" fill="#2656aa"/>
      <path id="Path_31" data-name="Path 31" d="M443.37,295.691a1.7,1.7,0,1,1-1.7-1.695A1.695,1.695,0,0,1,443.37,295.691Zm0,0" transform="translate(-415.119 -277.045)" fill="#2656aa"/>
      <path id="Path_32" data-name="Path 32" d="M13,10.951h5.085a.56.56,0,0,0,.548-.429L22.477-4.87h5.21a.565.565,0,0,0,.565-.565A.565.565,0,0,0,27.686-6h-5.65a.565.565,0,0,0-.548.43l-.6,2.4H1.7a.565.565,0,0,0-.548.43L.017,1.775a.568.568,0,0,0,.232.6l12.431,8.476a.564.564,0,0,0,.316.1Zm1.712-2.972L16.968-.5a.568.568,0,0,1,.7-.4.567.567,0,0,1,.4.7L15.8,8.273a.565.565,0,0,1-.548.418.7.7,0,0,1-.147-.017.572.572,0,0,1-.4-.695ZM4.5-.2,4.04,1.532a.573.573,0,0,1-.548.418.687.687,0,0,1-.147-.017.572.572,0,0,1-.4-.7L3.407-.5A.567.567,0,0,1,4.1-.9a.568.568,0,0,1,.4.7Zm3.39,0L6.927,3.419a.565.565,0,0,1-.548.418.688.688,0,0,1-.147-.017.573.573,0,0,1-.4-.7L6.8-.5a.568.568,0,0,1,.7-.4.567.567,0,0,1,.4.7Zm3.39,0L9.814,5.3a.565.565,0,0,1-.548.418A.649.649,0,0,1,9.119,5.7a.573.573,0,0,1-.4-.7L10.187-.5a.567.567,0,0,1,.7-.4.567.567,0,0,1,.4.7Zm.87,7.8a.646.646,0,0,1-.147-.017.572.572,0,0,1-.4-.695L13.578-.5a.567.567,0,0,1,.695-.4.568.568,0,0,1,.4.7L12.7,7.182a.574.574,0,0,1-.548.418Zm0,0" transform="translate(-0.001 6)" fill="#2656aa"/>
      <path id="Path_33" data-name="Path 33" d="M50.459,39.65h-1.8l-1.04-5.2A.565.565,0,0,0,47.069,34h-4.52a.561.561,0,0,0-.548.43L38.152,49.82H30.084a5.085,5.085,0,1,0,0,1.13H40.322a5.085,5.085,0,0,0,9.605,1.7,5.177,5.177,0,0,0,.407-1.13,4.686,4.686,0,0,0,.09-.565h.6a1.529,1.529,0,0,0,.56-.1,1.682,1.682,0,0,0,1.13-1.588V41.91a2.184,2.184,0,0,0-2.26-2.26ZM25.033,53.211a2.825,2.825,0,1,1,2.825-2.825A2.825,2.825,0,0,1,25.033,53.211ZM43.069,35.4a.321.321,0,0,1,.317-.268h3.22l.452,3.39H42.983a.369.369,0,0,1-.363-.429Zm-2.334,8.761.277-1.119H48.2a.579.579,0,0,1,.367.136l3.023,2.593v1.486l-3.6-3.085H40.729Zm4.639,9.052A2.825,2.825,0,1,1,48.2,50.385,2.825,2.825,0,0,1,45.373,53.211Zm0,0" transform="translate(-18.818 -31.74)" fill="#2656aa"/>
    </g>
  </g>
</svg>
