<svg xmlns="http://www.w3.org/2000/svg" width="445" height="445" viewBox="0 0 445 445">
  <g id="User_filled" data-name="User filled" transform="translate(-5282.5 -3444.5)">
    <circle id="Ellipse_698" data-name="Ellipse 698" cx="222.5" cy="222.5" r="222.5" transform="translate(5282.5 3444.5)" fill="#e1e1e1"/>
    <g id="user_7_" data-name="user (7)" transform="translate(5340.835 3507.816)">
      <g id="Group_17520" data-name="Group 17520" transform="translate(24.165 10.183)">
        <g id="Group_17519" data-name="Group 17519">
          <path id="Path_26912" data-name="Path 26912" d="M181.261,140.938a70.469,70.469,0,1,0-70.469-70.469A70.656,70.656,0,0,0,181.261,140.938Z" transform="translate(-41.777)" fill="#f2f4f5"/>
          <path id="Path_26913" data-name="Path 26913" d="M302.493,306.706a75.425,75.425,0,0,0-8.126-14.838c-16.252-24.024-41.335-39.922-69.6-43.809a14.891,14.891,0,0,0-10.245,2.473,86.239,86.239,0,0,1-101.749,0,13.256,13.256,0,0,0-10.245-2.473,99.834,99.834,0,0,0-69.6,43.809A86.963,86.963,0,0,0,24.8,306.706a7.513,7.513,0,0,0,.353,6.713A140.939,140.939,0,0,0,34.7,327.55a134.264,134.264,0,0,0,16.252,18.371A211.781,211.781,0,0,0,67.2,360.053a161.111,161.111,0,0,0,192.192,0,155.336,155.336,0,0,0,16.252-14.132,163.136,163.136,0,0,0,16.252-18.371,123.863,123.863,0,0,0,9.539-14.132A6.029,6.029,0,0,0,302.493,306.706Z" transform="translate(-24.165 -94.68)" fill="#f2f4f5"/>
        </g>
      </g>
    </g>
  </g>
</svg>
