<svg xmlns="http://www.w3.org/2000/svg" width="15.621" height="18.024" viewBox="0 0 15.621 18.024">
  <g id="organization" transform="translate(-48 -16)">
    <path id="Path_27203" data-name="Path 27203" d="M184,288h.9v.6H184Z" transform="translate(-130.893 -261.787)" fill="#6e6d80"/>
    <path id="Path_27204" data-name="Path 27204" d="M224,288h.9v.6H224Z" transform="translate(-169.391 -261.787)" fill="#6e6d80"/>
    <path id="Path_27205" data-name="Path 27205" d="M264,288h.9v.6H264Z" transform="translate(-207.889 -261.787)" fill="#6e6d80"/>
    <path id="Path_27206" data-name="Path 27206" d="M304,288h.9v.6H304Z" transform="translate(-246.387 -261.787)" fill="#6e6d80"/>
    <path id="Path_27207" data-name="Path 27207" d="M184,256h.9v.6H184Z" transform="translate(-130.893 -230.988)" fill="#6e6d80"/>
    <path id="Path_27208" data-name="Path 27208" d="M224,256h.9v.6H224Z" transform="translate(-169.391 -230.988)" fill="#6e6d80"/>
    <path id="Path_27209" data-name="Path 27209" d="M264,256h.9v.6H264Z" transform="translate(-207.889 -230.988)" fill="#6e6d80"/>
    <path id="Path_27210" data-name="Path 27210" d="M304,256h.9v.6H304Z" transform="translate(-246.387 -230.988)" fill="#6e6d80"/>
    <path id="Path_27211" data-name="Path 27211" d="M184,224h.9v.6H184Z" transform="translate(-130.893 -200.19)" fill="#6e6d80"/>
    <path id="Path_27212" data-name="Path 27212" d="M224,224h.9v.6H224Z" transform="translate(-169.391 -200.19)" fill="#6e6d80"/>
    <path id="Path_27213" data-name="Path 27213" d="M264,224h.9v.6H264Z" transform="translate(-207.889 -200.19)" fill="#6e6d80"/>
    <path id="Path_27214" data-name="Path 27214" d="M304,224h.9v.6H304Z" transform="translate(-246.387 -200.19)" fill="#6e6d80"/>
    <path id="Path_27215" data-name="Path 27215" d="M184,320h.9v.6H184Z" transform="translate(-130.893 -292.585)" fill="#6e6d80"/>
    <path id="Path_27216" data-name="Path 27216" d="M224,320h.9v.6H224Z" transform="translate(-169.391 -292.585)" fill="#6e6d80"/>
    <path id="Path_27217" data-name="Path 27217" d="M264,320h.9v.6H264Z" transform="translate(-207.889 -292.585)" fill="#6e6d80"/>
    <path id="Path_27218" data-name="Path 27218" d="M304,320h.9v.6H304Z" transform="translate(-246.387 -292.585)" fill="#6e6d80"/>
    <path id="Path_27219" data-name="Path 27219" d="M184,352h.9v.6H184Z" transform="translate(-130.893 -323.383)" fill="#6e6d80"/>
    <path id="Path_27220" data-name="Path 27220" d="M224,352h.9v.6H224Z" transform="translate(-169.391 -323.383)" fill="#6e6d80"/>
    <path id="Path_27221" data-name="Path 27221" d="M264,352h.9v.6H264Z" transform="translate(-207.889 -323.383)" fill="#6e6d80"/>
    <path id="Path_27222" data-name="Path 27222" d="M304,352h.9v.6H304Z" transform="translate(-246.387 -323.383)" fill="#6e6d80"/>
    <path id="Path_27223" data-name="Path 27223" d="M184,384h.9v.6H184Z" transform="translate(-130.893 -354.182)" fill="#6e6d80"/>
    <path id="Path_27224" data-name="Path 27224" d="M224,384h.9v.6H224Z" transform="translate(-169.391 -354.182)" fill="#6e6d80"/>
    <path id="Path_27225" data-name="Path 27225" d="M264,384h.9v.6H264Z" transform="translate(-207.889 -354.182)" fill="#6e6d80"/>
    <path id="Path_27226" data-name="Path 27226" d="M304,384h.9v.6H304Z" transform="translate(-246.387 -354.182)" fill="#6e6d80"/>
    <path id="Path_27227" data-name="Path 27227" d="M184,416h.9v.6H184Z" transform="translate(-130.893 -384.98)" fill="#6e6d80"/>
    <path id="Path_27228" data-name="Path 27228" d="M304,416h.9v.6H304Z" transform="translate(-246.387 -384.98)" fill="#6e6d80"/>
    <path id="Path_27229" data-name="Path 27229" d="M80,384h.6v.6H80Z" transform="translate(-30.798 -354.182)" fill="#6e6d80"/>
    <path id="Path_27230" data-name="Path 27230" d="M112,384h.6v.6H112Z" transform="translate(-61.597 -354.182)" fill="#6e6d80"/>
    <path id="Path_27231" data-name="Path 27231" d="M80,352h.6v.6H80Z" transform="translate(-30.798 -323.383)" fill="#6e6d80"/>
    <path id="Path_27232" data-name="Path 27232" d="M112,352h.6v.6H112Z" transform="translate(-61.597 -323.383)" fill="#6e6d80"/>
    <path id="Path_27233" data-name="Path 27233" d="M80,320h.6v.6H80Z" transform="translate(-30.798 -292.585)" fill="#6e6d80"/>
    <path id="Path_27234" data-name="Path 27234" d="M112,320h.6v.6H112Z" transform="translate(-61.597 -292.585)" fill="#6e6d80"/>
    <path id="Path_27235" data-name="Path 27235" d="M200,128h.6v.6H200Z" transform="translate(-146.292 -107.794)" fill="#6e6d80"/>
    <path id="Path_27236" data-name="Path 27236" d="M232,128h.6v.6H232Z" transform="translate(-177.091 -107.794)" fill="#6e6d80"/>
    <path id="Path_27237" data-name="Path 27237" d="M264,128h.6v.6H264Z" transform="translate(-207.889 -107.794)" fill="#6e6d80"/>
    <path id="Path_27238" data-name="Path 27238" d="M296,128h.6v.6H296Z" transform="translate(-238.688 -107.794)" fill="#6e6d80"/>
    <path id="Path_27239" data-name="Path 27239" d="M200,160h.6v.6H200Z" transform="translate(-146.292 -138.593)" fill="#6e6d80"/>
    <path id="Path_27240" data-name="Path 27240" d="M232,160h.6v.6H232Z" transform="translate(-177.091 -138.593)" fill="#6e6d80"/>
    <path id="Path_27241" data-name="Path 27241" d="M264,160h.6v.6H264Z" transform="translate(-207.889 -138.593)" fill="#6e6d80"/>
    <path id="Path_27242" data-name="Path 27242" d="M296,160h.6v.6H296Z" transform="translate(-238.688 -138.593)" fill="#6e6d80"/>
    <path id="Path_27243" data-name="Path 27243" d="M80,416h.6v.6H80Z" transform="translate(-30.798 -384.98)" fill="#6e6d80"/>
    <path id="Path_27244" data-name="Path 27244" d="M112,416h.6v.6H112Z" transform="translate(-61.597 -384.98)" fill="#6e6d80"/>
    <path id="Path_27245" data-name="Path 27245" d="M80,448h.6v.6H80Z" transform="translate(-30.798 -415.779)" fill="#6e6d80"/>
    <path id="Path_27246" data-name="Path 27246" d="M112,448h.6v.6H112Z" transform="translate(-61.597 -415.779)" fill="#6e6d80"/>
    <path id="Path_27247" data-name="Path 27247" d="M416,384h.6v.6H416Z" transform="translate(-354.182 -354.182)" fill="#6e6d80"/>
    <path id="Path_27248" data-name="Path 27248" d="M384,384h.6v.6H384Z" transform="translate(-323.383 -354.182)" fill="#6e6d80"/>
    <path id="Path_27249" data-name="Path 27249" d="M416,352h.6v.6H416Z" transform="translate(-354.182 -323.383)" fill="#6e6d80"/>
    <path id="Path_27250" data-name="Path 27250" d="M384,352h.6v.6H384Z" transform="translate(-323.383 -323.383)" fill="#6e6d80"/>
    <path id="Path_27251" data-name="Path 27251" d="M416,320h.6v.6H416Z" transform="translate(-354.182 -292.585)" fill="#6e6d80"/>
    <path id="Path_27252" data-name="Path 27252" d="M384,320h.6v.6H384Z" transform="translate(-323.383 -292.585)" fill="#6e6d80"/>
    <path id="Path_27253" data-name="Path 27253" d="M416,416h.6v.6H416Z" transform="translate(-354.182 -384.98)" fill="#6e6d80"/>
    <path id="Path_27254" data-name="Path 27254" d="M384,416h.6v.6H384Z" transform="translate(-323.383 -384.98)" fill="#6e6d80"/>
    <path id="Path_27255" data-name="Path 27255" d="M416,448h.6v.6H416Z" transform="translate(-354.182 -415.779)" fill="#6e6d80"/>
    <path id="Path_27256" data-name="Path 27256" d="M384,448h.6v.6H384Z" transform="translate(-323.383 -415.779)" fill="#6e6d80"/>
    <path id="Path_27257" data-name="Path 27257" d="M57.913,16h-1.5a.3.3,0,0,0-.184.063l-2.7,2.1a.3.3,0,0,0-.116.237V19h-.6a.3.3,0,0,0-.3.3v3.3h-.6a.3.3,0,0,0-.3.3v3.3H48.3a.3.3,0,0,0-.3.3v7.21a.3.3,0,0,0,.3.3H63.32a.3.3,0,0,0,.3-.3v-7.21a.3.3,0,0,0-.3-.3h-3.3v-3.3a.3.3,0,0,0-.3-.3h-.6V19.3a.3.3,0,0,0-.3-.3h-.6V16.3a.3.3,0,0,0-.3-.3ZM48.6,26.814h3v6.609h-3Zm14.419,0v6.609h-3V26.814ZM54.008,18.55,56.514,16.6h1.1V19h-3.6Zm1.2,14.873v-1.8h1.2v1.8Zm4.206,0h-2.4v-2.1a.3.3,0,0,0-.3-.3h-1.8a.3.3,0,0,0-.3.3v2.1h-2.4V23.209h7.209Zm-.9-10.814H53.107v-3h5.407Z" transform="translate(0)" fill="#6e6d80"/>
  </g>
</svg>
