<svg xmlns="http://www.w3.org/2000/svg" width="46.08" height="46.08" viewBox="0 0 46.08 46.08">
  <g id="Vehicle" transform="translate(-1311.5 -525.42)">
    <circle id="Ellipse_431" data-name="Ellipse 431" cx="23.04" cy="23.04" r="23.04" transform="translate(1311.5 525.42)" fill="rgba(200,227,248,0.6)"/>
    <path id="car_7_" data-name="car (7)" d="M26.046,72.488a.533.533,0,0,0-.468-.323h-2.4a.533.533,0,0,0-.468.323,3.88,3.88,0,0,0-.137.485l-1.6-4.429a1.855,1.855,0,0,0-1.74-1.221H6.993a1.855,1.855,0,0,0-1.74,1.221l-1.6,4.429a3.892,3.892,0,0,0-.137-.486.533.533,0,0,0-.468-.323H.651a.533.533,0,0,0-.468.323,2.361,2.361,0,0,0,0,1.818.533.533,0,0,0,.468.323h2.4l-.036.1a1.229,1.229,0,0,0-.841,1.166v8.118a.591.591,0,0,0,.591.591H5.74a.591.591,0,0,0,.591-.591V81.137H19.9v2.875a.591.591,0,0,0,.591.591h2.972a.591.591,0,0,0,.591-.591V75.894a1.229,1.229,0,0,0-.841-1.166l-.036-.1h2.4a.533.533,0,0,0,.468-.323A2.361,2.361,0,0,0,26.046,72.488ZM7.219,69.5H19.008l1.868,5.168H5.351Zm.329,8.808H5.061a.966.966,0,1,1,0-1.932H7.548a.966.966,0,1,1,0,1.932Zm13.62,0H18.681a.966.966,0,1,1,0-1.932h2.487a.966.966,0,1,1,0,1.932Z" transform="translate(1321.262 472.545)" fill="#3c8ef9" stroke="#3c8ef9" stroke-linecap="round" stroke-linejoin="round"/>
  </g>
</svg>
