<svg xmlns="http://www.w3.org/2000/svg" width="75" height="75" viewBox="0 0 75 75">
  <g id="Vehicles_Reg." data-name="Vehicles Reg." transform="translate(-968 -179)">
    <circle id="Ellipse_420" data-name="Ellipse 420" cx="37.5" cy="37.5" r="37.5" transform="translate(968 179)" fill="rgba(210,204,251,0.6)"/>
    <g id="delivery-truck_2_" data-name="delivery-truck (2)" transform="translate(985.742 201)">
      <g id="Group_18110" data-name="Group 18110" transform="translate(0 0)">
        <g id="Group_18109" data-name="Group 18109" transform="translate(0 0)">
          <path id="Path_27179" data-name="Path 27179" d="M0,235.938a.788.788,0,0,0,.789.828H2.05a5.582,5.582,0,0,1,5.013-3.281,5.582,5.582,0,0,1,5.014,3.281H28.458v-6.7H0Z" transform="translate(0 -212.154)" fill="#8e78eb"/>
          <path id="Path_27180" data-name="Path 27180" d="M34.187,277.32a3.715,3.715,0,1,0,3.715,3.715A3.715,3.715,0,0,0,34.187,277.32Z" transform="translate(-27.124 -254.218)" fill="#8e78eb"/>
          <path id="Path_27181" data-name="Path 27181" d="M289.57,192.619l-3.538-1.555H275v10.988h2.141a5.471,5.471,0,0,1,10.027,0h2.1a.788.788,0,0,0,.789-.828v-7.8A.854.854,0,0,0,289.57,192.619Z" transform="translate(-244.784 -177.439)" fill="#8e78eb"/>
          <path id="Path_27182" data-name="Path 27182" d="M282.394,122.418a2.523,2.523,0,0,0-2.278-1.356H275v5.933h9.77Z" transform="translate(-244.784 -115.128)" fill="#8e78eb"/>
          <path id="Path_27183" data-name="Path 27183" d="M25.935,67.064H2.51A2.533,2.533,0,0,0,0,69.64V83.216H28.458V69.64s0-.008,0-.012A2.544,2.544,0,0,0,25.935,67.064Z" transform="translate(0 -67.064)" fill="#8e78eb"/>
          <path id="Path_27184" data-name="Path 27184" d="M310.02,277.32a3.715,3.715,0,1,0,3.715,3.715h0A3.715,3.715,0,0,0,310.02,277.32Z" transform="translate(-272.65 -254.218)" fill="#8e78eb"/>
        </g>
      </g>
    </g>
  </g>
</svg>
