<svg xmlns="http://www.w3.org/2000/svg" xmlns:xlink="http://www.w3.org/1999/xlink" width="28.293" height="28.293" viewBox="0 0 28.293 28.293">
  <defs>
    <clipPath id="clip-path">
      <path id="path2835" d="M0-682.665H28.293v28.293H0Z" transform="translate(0 682.665)" fill="#2f2e5d"/>
    </clipPath>
  </defs>
  <g id="Dashboard" transform="translate(0 682.665)">
    <g id="g2831" transform="translate(0 -682.665)">
      <g id="g2833" clip-path="url(#clip-path)">
        <g id="g2839" transform="translate(0 0.939)">
          <path id="path2841" d="M-596.859-468.223h-23.32a2.489,2.489,0,0,1-2.487-2.487v-16.136a2.49,2.49,0,0,1,2.487-2.487h23.32a2.49,2.49,0,0,1,2.487,2.487v16.136A2.49,2.49,0,0,1-596.859-468.223Zm-23.32-19.452a.83.83,0,0,0-.829.829v16.136a.83.83,0,0,0,.829.829h23.32a.83.83,0,0,0,.829-.829v-16.136a.83.83,0,0,0-.829-.829Z" transform="translate(622.665 489.332)" fill="#2f2e5d"/>
        </g>
        <g id="g2843" transform="translate(9.781 20.391)">
          <path id="path2845" d="M-182.764-141.037h-7.073a.829.829,0,0,1-.632-.293.829.829,0,0,1-.185-.672l.884-5.3a.829.829,0,0,1,.818-.693h5.3a.829.829,0,0,1,.818.693l.884,5.3a.829.829,0,0,1-.185.672A.829.829,0,0,1-182.764-141.037Zm-6.095-1.658h5.116l-.608-3.647h-3.9Z" transform="translate(190.666 148)" fill="#2f2e5d"/>
        </g>
        <g id="g2847" transform="translate(8.013 25.696)">
          <path id="path2849" d="M-8.561-18.342h-10.61A.829.829,0,0,1-20-19.171.829.829,0,0,1-19.171-20h10.61a.829.829,0,0,1,.829.829A.829.829,0,0,1-8.561-18.342Z" transform="translate(20 20)" fill="#2f2e5d"/>
        </g>
        <g id="g2851" transform="translate(3.592 6.244)">
          <path id="path2853" d="M-12.1-9.5h-7.073A.829.829,0,0,1-20-10.33v-8.842A.829.829,0,0,1-19.171-20a.829.829,0,0,1,.829.829v8.013H-12.1a.829.829,0,0,1,.829.829A.829.829,0,0,1-12.1-9.5Z" transform="translate(20 20)" fill="#3c8ef9"/>
        </g>
        <g id="g2855" transform="translate(7.129 8.897)">
          <path id="path2857" d="M-19.171-161.486a.829.829,0,0,1-.829-.829V-168.5a.829.829,0,0,1,.829-.829.829.829,0,0,1,.829.829v6.189A.829.829,0,0,1-19.171-161.486Z" transform="translate(20 169.333)" fill="#3c8ef9"/>
        </g>
        <g id="g2859" transform="translate(10.665 11.549)">
          <path id="path2861" d="M-19.171-100.139a.829.829,0,0,1-.829-.829V-104.5a.829.829,0,0,1,.829-.829.829.829,0,0,1,.829.829v3.537A.829.829,0,0,1-19.171-100.139Z" transform="translate(20 105.333)" fill="#3c8ef9"/>
        </g>
        <g id="g2863" transform="translate(15.086 6.686)">
          <path id="path2865" d="M-207.192-116a4.813,4.813,0,0,1,4.808,4.808,4.813,4.813,0,0,1-4.808,4.808A4.813,4.813,0,0,1-212-111.192,4.813,4.813,0,0,1-207.192-116Zm0,7.957a3.153,3.153,0,0,0,3.15-3.15,3.153,3.153,0,0,0-3.15-3.15,3.153,3.153,0,0,0-3.15,3.15A3.153,3.153,0,0,0-207.192-108.042Z" transform="translate(211.999 116)" fill="#3c8ef9"/>
        </g>
        <g id="g2867" transform="translate(19.065 6.686)">
          <path id="path2869" d="M-15.192-14.363h-3.979A.829.829,0,0,1-20-15.192v-3.979A.829.829,0,0,1-19.171-20a.829.829,0,0,1,.829.829v3.15h3.15a.829.829,0,0,1,.829.829A.829.829,0,0,1-15.192-14.363Z" transform="translate(20 20)" fill="#3c8ef9"/>
        </g>
        <g id="g2871" transform="translate(16.251 10.665)">
          <path id="path2873" d="M-87.051-15.529a.826.826,0,0,1-.586-.243.829.829,0,0,1,0-1.172l2.813-2.813a.829.829,0,0,1,1.172,0,.829.829,0,0,1,0,1.172l-2.813,2.813A.826.826,0,0,1-87.051-15.529Z" transform="translate(87.88 20)" fill="#3c8ef9"/>
        </g>
        <g id="g2875" transform="translate(13.318 0.939)">
          <path id="path2877" d="M-19.171-16.574A.829.829,0,0,1-20-17.4v-1.768A.829.829,0,0,1-19.171-20a.829.829,0,0,1,.829.829V-17.4A.829.829,0,0,1-19.171-16.574Z" transform="translate(20 20)" fill="#2f2e5d"/>
        </g>
      </g>
    </g>
  </g>
</svg>
