<svg id="settings_light_icon" data-name="settings light icon" xmlns="http://www.w3.org/2000/svg" width="19.021" height="19.021" viewBox="0 0 19.021 19.021">
  <g id="Group_53" data-name="Group 53" transform="translate(5.201 5.201)">
    <g id="Group_52" data-name="Group 52">
      <path id="Path_71" data-name="Path 71" d="M144.309,140a4.309,4.309,0,1,0,1.3,8.419.743.743,0,0,0-.448-1.417,2.82,2.82,0,1,1,1.857-1.9.743.743,0,0,0,1.426.417A4.313,4.313,0,0,0,144.309,140Z" transform="translate(-140 -140)" fill="#3c8ef9"/>
    </g>
  </g>
  <g id="Group_55" data-name="Group 55">
    <g id="Group_54" data-name="Group 54">
      <path id="Path_72" data-name="Path 72" d="M16.792,6.91h-.374a.247.247,0,0,1-.226-.156l-.007-.016a.249.249,0,0,1,.049-.273L16.5,6.2a2.232,2.232,0,0,0,0-3.152l-.525-.525a2.229,2.229,0,0,0-3.152,0l-.265.265a.249.249,0,0,1-.273.049l-.014-.006a.248.248,0,0,1-.158-.227V2.229A2.232,2.232,0,0,0,9.882,0H9.139A2.232,2.232,0,0,0,6.91,2.229V2.6a.248.248,0,0,1-.157.227l-.015.006a.249.249,0,0,1-.273-.049L6.2,2.523a2.229,2.229,0,0,0-3.152,0l-.525.525a2.232,2.232,0,0,0,0,3.152l.265.265a.25.25,0,0,1,.048.276l0,.011A.248.248,0,0,1,2.6,6.91H2.229A2.232,2.232,0,0,0,0,9.139v.743a2.232,2.232,0,0,0,2.229,2.229H2.6a.247.247,0,0,1,.226.156l.007.016a.249.249,0,0,1-.049.273l-.265.265a2.229,2.229,0,0,0,0,3.152l.525.525a2.229,2.229,0,0,0,3.152,0l.265-.265a.249.249,0,0,1,.273-.049l.014.006a.248.248,0,0,1,.158.227v.374a2.232,2.232,0,0,0,2.229,2.229h.743a2.232,2.232,0,0,0,2.229-2.229v-.374a.248.248,0,0,1,.157-.227l.015-.006a.249.249,0,0,1,.273.049l.265.265a2.229,2.229,0,0,0,3.152,0l.525-.525a2.229,2.229,0,0,0,0-3.152l-.265-.265a.249.249,0,0,1-.049-.273l.006-.014a.248.248,0,0,1,.227-.158h.374a2.232,2.232,0,0,0,2.229-2.229V9.139A2.232,2.232,0,0,0,16.792,6.91Zm.743,2.972a.744.744,0,0,1-.743.743h-.374a1.729,1.729,0,0,0-1.6,1.077l0,.012a1.73,1.73,0,0,0,.371,1.893l.265.265a.743.743,0,0,1,0,1.051l-.525.525a.743.743,0,0,1-1.051,0l-.265-.265a1.731,1.731,0,0,0-1.894-.37l-.01,0a1.729,1.729,0,0,0-1.077,1.6v.374a.744.744,0,0,1-.743.743H9.139a.744.744,0,0,1-.743-.743v-.374a1.73,1.73,0,0,0-1.078-1.6l-.01,0a1.754,1.754,0,0,0-.674-.135,1.722,1.722,0,0,0-1.22.505l-.265.265a.743.743,0,0,1-1.051,0l-.525-.525a.743.743,0,0,1,0-1.051l.265-.265a1.73,1.73,0,0,0,.371-1.893l0-.012a1.73,1.73,0,0,0-1.6-1.077H2.229a.744.744,0,0,1-.743-.743V9.139A.744.744,0,0,1,2.229,8.4H2.6a1.73,1.73,0,0,0,1.6-1.079l0-.008a1.73,1.73,0,0,0-.37-1.894L3.574,5.15a.744.744,0,0,1,0-1.051L4.1,3.574a.743.743,0,0,1,1.051,0l.265.265a1.73,1.73,0,0,0,1.894.37l.01,0A1.729,1.729,0,0,0,8.4,2.6V2.229a.744.744,0,0,1,.743-.743h.743a.744.744,0,0,1,.743.743V2.6A1.73,1.73,0,0,0,11.7,4.2l.01,0a1.731,1.731,0,0,0,1.894-.37l.265-.265a.743.743,0,0,1,1.051,0l.525.525a.744.744,0,0,1,0,1.051l-.265.265a1.729,1.729,0,0,0-.371,1.891l.006.014a1.73,1.73,0,0,0,1.6,1.077h.374a.744.744,0,0,1,.743.743Z" fill="#2f2e5d"/>
    </g>
  </g>
</svg>
