<svg xmlns="http://www.w3.org/2000/svg" width="22.062" height="22.062" viewBox="0 0 22.062 22.062">
  <g id="Dashboard" transform="translate(-1 -1)">
    <path id="Path_19411" data-name="Path 19411" d="M8.02,11.028H4.008A3.008,3.008,0,0,1,1,8.02V4.008A3.008,3.008,0,0,1,4.008,1H8.02a3.008,3.008,0,0,1,3.008,3.008V8.02A3.008,3.008,0,0,1,8.02,11.028ZM4.008,3.006a1,1,0,0,0-1,1V8.02a1,1,0,0,0,1,1H8.02a1,1,0,0,0,1-1V4.008a1,1,0,0,0-1-1Zm16.045,8.023H16.042A3.008,3.008,0,0,1,13.034,8.02V4.008A3.008,3.008,0,0,1,16.042,1h4.011a3.008,3.008,0,0,1,3.008,3.008V8.02A3.008,3.008,0,0,1,20.054,11.028ZM16.042,3.006a1,1,0,0,0-1,1V8.02a1,1,0,0,0,1,1h4.011a1,1,0,0,0,1-1V4.008a1,1,0,0,0-1-1ZM8.02,23.062H4.008A3.008,3.008,0,0,1,1,20.054V16.042a3.008,3.008,0,0,1,3.008-3.008H8.02a3.008,3.008,0,0,1,3.008,3.008v4.011A3.008,3.008,0,0,1,8.02,23.062ZM4.008,15.04a1,1,0,0,0-1,1v4.011a1,1,0,0,0,1,1H8.02a1,1,0,0,0,1-1V16.042a1,1,0,0,0-1-1Zm16.045,8.023H16.042a3.008,3.008,0,0,1-3.008-3.008V16.042a3.008,3.008,0,0,1,3.008-3.008h4.011a3.008,3.008,0,0,1,3.008,3.008v4.011A3.008,3.008,0,0,1,20.054,23.062ZM16.042,15.04a1,1,0,0,0-1,1v4.011a1,1,0,0,0,1,1h4.011a1,1,0,0,0,1-1V16.042a1,1,0,0,0-1-1Z" transform="translate(0 0)" fill="#fff"/>
  </g>
</svg>
