<svg id="Logout" xmlns="http://www.w3.org/2000/svg" xmlns:xlink="http://www.w3.org/1999/xlink" width="19.546" height="19.546" viewBox="0 0 19.546 19.546">
  <defs>
    <clipPath id="clip-path">
      <path id="path2646" d="M0-682.665H19.546v19.546H0Z" transform="translate(0 682.665)" fill="#295789"/>
    </clipPath>
  </defs>
  <g id="g2640" transform="translate(0 0)">
    <g id="g2642">
      <g id="g2644" clip-path="url(#clip-path)">
        <g id="g2650" transform="translate(0 0)">
          <path id="path2652" d="M-443.938-503.119h-7.673a3.057,3.057,0,0,1-3.054-3.054v-13.438a3.057,3.057,0,0,1,3.054-3.054h7.673a3.057,3.057,0,0,1,3.054,3.054v1.527a.763.763,0,0,1-.763.764.763.763,0,0,1-.763-.764v-1.527a1.529,1.529,0,0,0-1.527-1.527h-7.673a1.529,1.529,0,0,0-1.527,1.527v13.438a1.529,1.529,0,0,0,1.527,1.527h7.673a1.529,1.529,0,0,0,1.527-1.527V-507.7a.763.763,0,0,1,.763-.763.763.763,0,0,1,.763.763v1.527A3.057,3.057,0,0,1-443.938-503.119Z" transform="translate(454.665 522.665)" fill="#295789"/>
        </g>
        <g id="g2654" transform="translate(7.482 9.048)">
          <path id="path2656" d="M-376.89-25.14h-10.346A.764.764,0,0,1-388-25.9a.764.764,0,0,1,.763-.764h10.346a.763.763,0,0,1,.763.764A.763.763,0,0,1-376.89-25.14Z" transform="translate(387.999 26.667)" fill="#295789"/>
        </g>
        <g id="g2658" transform="translate(15.974 6.528)">
          <path id="path2660" d="M-25.9-196.1a.761.761,0,0,1-.54-.224.764.764,0,0,1,0-1.08l1.71-1.71a.38.38,0,0,0,.112-.27.38.38,0,0,0-.112-.27l-1.71-1.71a.763.763,0,0,1,0-1.08.763.763,0,0,1,1.08,0l1.71,1.71a1.9,1.9,0,0,1,.559,1.35,1.9,1.9,0,0,1-.559,1.35l-1.71,1.71A.761.761,0,0,1-25.9-196.1Z" transform="translate(26.667 202.666)" fill="#295789"/>
        </g>
      </g>
    </g>
  </g>
</svg>
