<svg xmlns="http://www.w3.org/2000/svg" width="20.536" height="21.188" viewBox="0 0 20.536 21.188">
  <path id="Settings" d="M27.8,12.278l-.881-.726a1.241,1.241,0,0,1,0-1.917L27.8,8.91A1.65,1.65,0,0,0,28.186,6.8L26.446,3.79a1.65,1.65,0,0,0-2.014-.722l-1.069.4a1.242,1.242,0,0,1-1.66-.958l-.188-1.126A1.65,1.65,0,0,0,19.882,0H16.4a1.65,1.65,0,0,0-1.633,1.383L14.58,2.509a1.242,1.242,0,0,1-1.66.959l-1.069-.4a1.65,1.65,0,0,0-2.014.722L8.1,6.8A1.65,1.65,0,0,0,8.478,8.91l.881.726a1.241,1.241,0,0,1,0,1.917l-.881.726A1.65,1.65,0,0,0,8.1,14.384L9.837,17.4a1.65,1.65,0,0,0,2.014.722l1.069-.4a1.241,1.241,0,0,1,1.66.958l.188,1.126A1.65,1.65,0,0,0,16.4,21.188h3.481A1.65,1.65,0,0,0,21.514,19.8l.188-1.126a1.242,1.242,0,0,1,1.66-.958l1.069.4a1.65,1.65,0,0,0,2.014-.722l1.741-3.015A1.65,1.65,0,0,0,27.8,12.278Zm-2.793,4.293-1.069-.4a2.9,2.9,0,0,0-3.874,2.236l-.188,1.126H16.4l-.188-1.126a2.9,2.9,0,0,0-3.874-2.236l-1.069.4L9.53,13.556l.881-.726a2.9,2.9,0,0,0,0-4.473L9.53,7.632l1.74-3.015,1.069.4a2.9,2.9,0,0,0,3.874-2.236L16.4,1.655h3.481l.188,1.126a2.9,2.9,0,0,0,3.874,2.236l1.069-.4,1.741,3.014h0l-.881.726a2.9,2.9,0,0,0,0,4.473l.881.726ZM18.141,6.511a4.083,4.083,0,1,0,4.083,4.083A4.088,4.088,0,0,0,18.141,6.511Zm0,6.511a2.428,2.428,0,1,1,2.428-2.428A2.431,2.431,0,0,1,18.141,13.022Z" transform="translate(-7.873)" fill="#fff"/>
</svg>
