<svg id="language_icon" xmlns="http://www.w3.org/2000/svg" width="21.995" height="21.995" viewBox="0 0 21.995 21.995">
  <g id="language_1_" data-name="language (1)">
    <path id="Path_26952" data-name="Path 26952" d="M214.075,91h-9.87l-1.483,17.862a1.886,1.886,0,0,0,.849.224h10.5a1.935,1.935,0,0,0,1.933-1.933V92.933A1.935,1.935,0,0,0,214.075,91Z" transform="translate(-194.013 -87.091)" fill="#c3d8f3"/>
    <path id="Path_26953" data-name="Path 26953" d="M169.867,407.86l.342,2.78a1.967,1.967,0,0,0,1.069,1.47c1.253-1.348.413-.487,3.386-3.686Z" transform="translate(-162.57 -390.338)" fill="#4a6ea2"/>
    <path id="Path_26954" data-name="Path 26954" d="M12.1,18.086c.211-.241.4-.4.346-.734L10.489,1.693A1.936,1.936,0,0,0,8.571,0H1.933A1.935,1.935,0,0,0,0,1.933v14.22a1.935,1.935,0,0,0,1.933,1.933Z" fill="#4c95ff"/>
    <path id="Path_26955" data-name="Path 26955" d="M79.852,106.518a.645.645,0,0,0-.632-.518H77.932a.645.645,0,0,0-.632.518l-1.289,6.444a.644.644,0,0,0,1.264.253l.412-2.06h1.779l.412,2.06a.644.644,0,0,0,1.264-.253Zm-1.908,3.348.515-2.578h.233l.515,2.578Z" transform="translate(-72.734 -101.446)" fill="#e6eeff"/>
  </g>
  <path id="Path_26962" data-name="Path 26962" d="M279.742,293h-2.068a.445.445,0,1,0,0,.889h.589v1.393H276.5A1.585,1.585,0,0,0,275.071,293h-1.284a.445.445,0,0,0,0,.889h1.284a.7.7,0,1,1,0,1.393h-1.426a.445.445,0,0,0,0,.889h1.426a.7.7,0,0,1,.7.7.689.689,0,0,1-.7.7,2.45,2.45,0,0,1-1.825-.583.445.445,0,0,0-.629.629,3.29,3.29,0,0,0,2.454.843,1.585,1.585,0,0,0,1.424-2.282h1.768v1.837a.445.445,0,0,0,.889,0v-4.119h.589a.445.445,0,0,0,0-.889Z" transform="translate(-259.609 -283.38)" fill="#53565c"/>
</svg>
