<svg xmlns="http://www.w3.org/2000/svg" width="287" height="190.936" viewBox="0 0 287 190.936">
  <g id="top_bg_design" data-name="top bg design" transform="translate(-10001 -6788.178)">
    <path id="Subtraction_11" data-name="Subtraction 11" d="M160.767,146.471a164.073,164.073,0,0,1-56.084-9.8,163.931,163.931,0,0,1-47.788-27.116A164.962,164.962,0,0,1,20.851,68.572,163.248,163.248,0,0,1,0,17.178H275.59a13.02,13.02,0,0,1,11.366,6.685V87.537a165.818,165.818,0,0,1-25.326,24.406,164.889,164.889,0,0,1-30.086,18.57,163.683,163.683,0,0,1-33.927,11.816A165.457,165.457,0,0,1,160.767,146.471Z" transform="translate(10001.001 6771)" fill="#b2e6ff"/>
    <path id="Subtraction_10" data-name="Subtraction 10" d="M160,262.936h0a165.364,165.364,0,0,1-32.364-4.109,163.877,163.877,0,0,1-57.276-25.463,165,165,0,0,1-57.844-71.876A163.673,163.673,0,0,1,3.233,131.06,166.228,166.228,0,0,1,2.115,72H159c.334,0,.67.013,1,.038Z" transform="translate(10128 6716.178)" fill="#97ddff"/>
  </g>
</svg>
